<svg width="43" height="34" viewBox="0 0 43 34" fill="none" xmlns="http://www.w3.org/2000/svg">
<path d="M41.5854 29.4444C41.5854 30.3874 41.1966 31.2918 40.5047 31.9586C39.8128 32.6254 38.8743 33 37.8958 33H4.68958C3.71104 33 2.77258 32.6254 2.08065 31.9586C1.38872 31.2918 1 30.3874 1 29.4444V9.88889C1 8.9459 1.38872 8.04153 2.08065 7.37473C2.77258 6.70794 3.71104 6.33333 4.68958 6.33333H12.0687L15.7583 1H26.8271L30.5166 6.33333H37.8958C38.8743 6.33333 39.8128 6.70794 40.5047 7.37473C41.1966 8.04153 41.5854 8.9459 41.5854 9.88889V29.4444Z" stroke="white" stroke-width="2" stroke-linecap="round" stroke-linejoin="round"/>
<path d="M21.2932 25.8883C25.3686 25.8883 28.6724 22.7045 28.6724 18.7772C28.6724 14.8498 25.3686 11.666 21.2932 11.666C17.2178 11.666 13.9141 14.8498 13.9141 18.7772C13.9141 22.7045 17.2178 25.8883 21.2932 25.8883Z" stroke="white" stroke-width="2" stroke-linecap="round" stroke-linejoin="round"/>
</svg>
