<svg xmlns="http://www.w3.org/2000/svg" viewBox="0 0 895.16 353.82"><title>Asset 10</title><g id="Layer_2" data-name="Layer 2"><g id="Black"><polygon id="M" points="253.21 50.6 253.21 276.01 202.95 276.01 202.95 138.87 152.85 188.97 152.99 189.09 115.44 226.64 27.82 139.01 27.82 276.01 2.26 276.01 2.26 50.6 14.49 50.6 27.82 63.93 120.81 156.93 227.15 50.6 253.21 50.6"/><path id="O" d="M404.77,50.6H351.7a49.2,49.2,0,0,0-49.2,49.2v127A49.21,49.21,0,0,0,351.7,276h53.07A49.21,49.21,0,0,0,454,226.8V99.8A49.2,49.2,0,0,0,404.77,50.6Zm-1.91,175.22a24.64,24.64,0,0,1-49.27,0V99.88a24.64,24.64,0,1,1,49.27,0Z"/><path d="M845.93,50.62h-53a48.77,48.77,0,0,0-48.77,48.76V276h50.19V176.54h50.19V276h50.16V99.38A48.76,48.76,0,0,0,845.93,50.62ZM844.53,150H794.34v-49.7a25.1,25.1,0,1,1,50.19,0Z"/><path d="M90.18,334.72v.93H71.46a8,8,0,0,0,2.61,5.62,8.24,8.24,0,0,0,5.79,2.27,9.78,9.78,0,0,0,7.13-2.9L88.55,342a12.42,12.42,0,0,1-8.9,3.61,10.91,10.91,0,0,1-10.92-10.92A10.73,10.73,0,0,1,71.84,327a10.22,10.22,0,0,1,7.6-3.19A10.32,10.32,0,0,1,90.18,334.72ZM73.81,328.3a8.23,8.23,0,0,0-2.35,5.88h16c0-4.62-3-8.32-8-8.32A7.64,7.64,0,0,0,73.81,328.3Z"/><path d="M119.57,334.39l8.73,10.83H125l-7.22-9-7.14,9h-3.23l8.73-10.92-8.1-10.07h3.27l6.59,8.22,6.55-8.22h3.23Z"/><path d="M165.74,331.66v13.56h-2.81v-2.69a14.72,14.72,0,0,1-9.4,3.11,7.72,7.72,0,0,1-5.29-1.85,6.3,6.3,0,0,1-2.06-4.91c0-4,3.07-6.22,8.23-6.22h8.52v-.75c0-3.91-2.52-5.88-6.55-5.88a12.72,12.72,0,0,0-7.64,2.6l-.92-1.84a15.84,15.84,0,0,1,9.23-3C162.3,323.81,165.74,326.41,165.74,331.66Zm-2.81,2.26h-7.56c-4,0-6.42,1.56-6.42,4.7s2.35,5.21,5.67,5.21a13.17,13.17,0,0,0,8.31-2.56Z"/><path d="M206.46,327.75,204.32,329a8.68,8.68,0,0,0-12.43-.29,8.43,8.43,0,0,0,0,12,8.38,8.38,0,0,0,6.05,2.48,8.18,8.18,0,0,0,6.59-3.06l2.18,1.26a11.37,11.37,0,0,1-8.9,4.24,11,11,0,0,1-7.93-3.19,10.74,10.74,0,0,1,0-15.45,11,11,0,0,1,7.93-3.19A11.27,11.27,0,0,1,206.46,327.75Z"/><path d="M231.44,324.23h6.8v2.18h-6.8v11.5a5.08,5.08,0,0,0,5.12,5.42,6,6,0,0,0,3-.8l.46,2a9.33,9.33,0,0,1-4.45,1.14,6.84,6.84,0,0,1-7-7.27v-12h-3.86v-2.18h3.86V318h2.86Z"/><path d="M263.13,345.22h-2.81V315.83h2.81Z"/><path d="M305.82,324.23,296,347.36c-2,4.74-4.45,6.42-7.77,6.46a11.86,11.86,0,0,1-4.11-.84l.84-1.93a7.27,7.27,0,0,0,3,.63c2.31-.13,3.86-1.26,5.5-4.79l.46-1-9.61-21.66h3l7.93,18.13,7.6-18.13Z"/><path d="M378,345.22h-3.11l-5.71-17-5.71,17h-3.14l-7.39-21h2.85l6.21,18,6-18h2.44l5.92,18,6.25-18h2.81Z"/><path d="M408.75,315.83v11.63a14.74,14.74,0,0,1,9.78-3.65c4.49,0,7.8,2.73,7.8,8v13.44h-2.85V332.5c0-4.08-2.27-6.38-5.92-6.38a12.44,12.44,0,0,0-8.81,3.44v15.66h-2.86V315.83Z"/><path d="M465,331.66v13.56h-2.82v-2.69a14.72,14.72,0,0,1-9.4,3.11,7.73,7.73,0,0,1-5.29-1.85,6.34,6.34,0,0,1-2.06-4.91c0-4,3.07-6.22,8.23-6.22h8.52v-.75c0-3.91-2.51-5.88-6.54-5.88a12.72,12.72,0,0,0-7.64,2.6l-.93-1.84a15.85,15.85,0,0,1,9.24-3C461.59,323.81,465,326.41,465,331.66Zm-2.82,2.26h-7.55c-4,0-6.42,1.56-6.42,4.7s2.35,5.21,5.66,5.21a13.15,13.15,0,0,0,8.31-2.56Z"/><path d="M491,324.23h6.8v2.18H491v11.5a5.09,5.09,0,0,0,5.12,5.42,6,6,0,0,0,3-.8l.47,2a9.33,9.33,0,0,1-4.45,1.14,6.84,6.84,0,0,1-7-7.27v-12H484.3v-2.18h3.87V318H491Z"/><path d="M567.54,324.23l-9.78,23.13c-2,4.74-4.45,6.42-7.76,6.46a11.91,11.91,0,0,1-4.12-.84l.84-1.93a7.31,7.31,0,0,0,3,.63c2.3-.13,3.86-1.26,5.49-4.79l.47-1-9.62-21.66h3L557,342.36l7.6-18.13Z"/><path d="M596.63,323.81a11.18,11.18,0,0,1,8.06,3.19,10.56,10.56,0,0,1,0,15.45,11.78,11.78,0,0,1-16.12,0,10.67,10.67,0,0,1,0-15.45A11.21,11.21,0,0,1,596.63,323.81Zm0,19.39a8.38,8.38,0,0,0,6-2.48,8.31,8.31,0,0,0,0-12,8.66,8.66,0,0,0-12.13,0,8.08,8.08,0,0,0-2.52,6A8.56,8.56,0,0,0,596.63,343.2Z"/><path d="M631.27,324.23V337c0,4.07,2.39,6.38,6,6.38a12.47,12.47,0,0,0,8.82-3.45V324.23h2.81v21H646V342a14.84,14.84,0,0,1-9.82,3.66c-4.66,0-7.77-2.9-7.77-8V324.23Z"/><path d="M718.2,331.78v13.44h-2.86V332.5c0-4.08-2.26-6.38-5.91-6.38a12.46,12.46,0,0,0-8.82,3.44v15.66h-2.85v-21h2.85v3.23a14.78,14.78,0,0,1,9.78-3.65C715.09,323.81,718.2,326.7,718.2,331.78Z"/><path d="M759.8,334.72v.93H741.08a7.93,7.93,0,0,0,2.6,5.62,8.26,8.26,0,0,0,5.79,2.27,9.82,9.82,0,0,0,7.14-2.9l1.55,1.39a12.42,12.42,0,0,1-8.9,3.61,10.89,10.89,0,0,1-10.91-10.92,10.76,10.76,0,0,1,3.1-7.72,10.22,10.22,0,0,1,7.6-3.19A10.34,10.34,0,0,1,759.8,334.72Zm-16.37-6.42a8.19,8.19,0,0,0-2.35,5.88h16c0-4.62-3-8.32-8-8.32A7.6,7.6,0,0,0,743.43,328.3Z"/><path d="M799.63,334.72v.93H780.91a8,8,0,0,0,2.6,5.62,8.28,8.28,0,0,0,5.8,2.27,9.78,9.78,0,0,0,7.13-2.9L798,342a12.42,12.42,0,0,1-8.9,3.61,10.89,10.89,0,0,1-10.92-10.92,10.73,10.73,0,0,1,3.11-7.72,10.22,10.22,0,0,1,7.6-3.19A10.32,10.32,0,0,1,799.63,334.72Zm-16.37-6.42a8.23,8.23,0,0,0-2.35,5.88h16c0-4.62-3-8.32-8-8.32A7.64,7.64,0,0,0,783.26,328.3Z"/><path d="M840.64,315.83v29.39h-2.81v-3.07a10.52,10.52,0,0,1-7.81,3.49,9.92,9.92,0,0,1-7.47-3.15,11,11,0,0,1-3-7.77,10.86,10.86,0,0,1,3-7.72,9.82,9.82,0,0,1,7.47-3.19,10.14,10.14,0,0,1,7.81,3.48V315.83Zm-18.3,18.89a8.07,8.07,0,0,0,2.52,6,8.62,8.62,0,0,0,13-1v-10a8.61,8.61,0,0,0-15.49,5Z"/><path d="M480.58,234.83h9l7.64,22.35,7.64-22.35h9l-12.05,32.83h-9.21Z"/><path d="M531.8,234.83H541l13,32.83h-9l-2.18-6.16H530l-2.18,6.16h-9Zm.9,19.17h7.4l-3.7-10.39Z"/><path d="M584.32,244.27a11.23,11.23,0,0,0-3.65-1.92,14.71,14.71,0,0,0-4-.5h0a9.73,9.73,0,0,0-3.65.57,1.85,1.85,0,0,0-1.38,1.71,1.58,1.58,0,0,0,.15.69,1.5,1.5,0,0,0,.57.59,4.74,4.74,0,0,0,1.18.52,18.65,18.65,0,0,0,2,.48l5.78,1.18a11.8,11.8,0,0,1,4.13,1.59A9,9,0,0,1,588,251.7a8.85,8.85,0,0,1,1.33,3.13,16.81,16.81,0,0,1,.35,3.39,8.87,8.87,0,0,1-1,4.3,9.12,9.12,0,0,1-2.8,3.13,13.09,13.09,0,0,1-4.2,1.92,19.89,19.89,0,0,1-5.26.66h0a21.91,21.91,0,0,1-9-1.68,13,13,0,0,1-5.86-5.15l7-5.12a9.15,9.15,0,0,0,3.75,3.53,10.53,10.53,0,0,0,4.32.88h.05a6.38,6.38,0,0,0,3.32-.71,2.24,2.24,0,0,0,1.14-2,2.13,2.13,0,0,0-.9-1.89,7.38,7.38,0,0,0-2.52-1l-7-1.66q-4.14-1-5.91-3.42a9.09,9.09,0,0,1-1.78-5.55,9.29,9.29,0,0,1,1-4.48,9.18,9.18,0,0,1,2.9-3.21,13.25,13.25,0,0,1,4.43-1.9,24.35,24.35,0,0,1,5.63-.61h0a24.34,24.34,0,0,1,6.77.88,15.93,15.93,0,0,1,5.48,2.77Z"/><path d="M628.3,234.83V243H619v24.62h-8.54V243h-9.3v-8.21Z"/><path d="M658.41,267.66l-6.08-10.2H648.4v10.2h-8.55V234.83h13.86q6.45,0,9.92,3t3.46,8.43v0a11.25,11.25,0,0,1-1.68,6.34,10,10,0,0,1-4.87,3.77L668,267.66Zm-10-25.15v7.6h5.31a10.71,10.71,0,0,0,2-.17,4.2,4.2,0,0,0,1.52-.59,2.84,2.84,0,0,0,1-1.17,4.35,4.35,0,0,0,.36-1.92v0a3.09,3.09,0,0,0-1.35-2.95,7.16,7.16,0,0,0-3.49-.76Z"/><path d="M688.46,234.83h9.21l13,32.83h-9l-2.19-6.16H686.66l-2.18,6.16h-9Zm.91,19.17h7.4l-3.7-10.39Z"/><line x1="596.3" y1="17.58" x2="892.16" y2="17.58" fill="#f176ad" stroke="#000" stroke-linecap="round" stroke-miterlimit="10" stroke-width="6"/><path d="M602,17.58a5,5,0,0,1,0,.55,10.76,10.76,0,0,1-3.15,7.49L590.47,34a10.08,10.08,0,0,0-1.81,2.46,10.29,10.29,0,0,0-1.19,4.78v5.58a9.9,9.9,0,0,1-9.9,9.9H533.52a51,51,0,0,0-51,51v99.6H708.82v-99.6a51,51,0,0,0-51-51H606.5a9.9,9.9,0,0,1-9.91-9.9v-3.5A6.09,6.09,0,0,1,598.38,39l6.12-6.11a18.48,18.48,0,0,0,6.9-14.42,18.29,18.29,0,0,0-.38-3.73h0a18.32,18.32,0,0,0-3.29-7.32l-.05-.06L607,6.61l0-.05a18.83,18.83,0,0,0-2.45-2.44,18.38,18.38,0,0,0-9.66-4h0c-.64-.06-1.29-.1-2-.1a18.74,18.74,0,0,0-3.84.4,18.5,18.5,0,0,0-14.34,14.71,18.89,18.89,0,0,0-.31,3.38,17.22,17.22,0,0,0,.29,3.22c.09.55.21,1.08.35,1.61h0a2.88,2.88,0,0,0,2.53,1.51h1.66a4.56,4.56,0,0,0,2.58-.8,4,4,0,0,0,1.5-4.18,9.3,9.3,0,0,1,17.76-5.29,6.7,6.7,0,0,1,.95,3m81.19,139.57H508.05V132.48A25.54,25.54,0,0,1,533.59,107h124.1a25.53,25.53,0,0,1,25.53,25.53Z" fill="#a585bd"/><line x1="3" y1="17.58" x2="596.3" y2="17.58" fill="#f176ad" stroke="#000" stroke-linecap="round" stroke-miterlimit="10" stroke-width="6"/></g></g></svg>