<svg width="28" height="30" viewBox="0 0 28 30" fill="none" xmlns="http://www.w3.org/2000/svg">
<path d="M7 2.5L3.5 7.5V25C3.5 25.663 3.74583 26.2989 4.18342 26.7678C4.621 27.2366 5.21449 27.5 5.83333 27.5H22.1667C22.7855 27.5 23.379 27.2366 23.8166 26.7678C24.2542 26.2989 24.5 25.663 24.5 25V7.5L21 2.5H7Z" stroke="#3C3C3C" stroke-width="2" stroke-linecap="round" stroke-linejoin="round"/>
<path d="M3.5 7.5H24.5" stroke="#3C3C3C" stroke-width="2" stroke-linecap="round" stroke-linejoin="round"/>
<path d="M18.6673 12.5C18.6673 13.8261 18.1757 15.0979 17.3005 16.0355C16.4253 16.9732 15.2383 17.5 14.0007 17.5C12.763 17.5 11.576 16.9732 10.7008 16.0355C9.82565 15.0979 9.33398 13.8261 9.33398 12.5" stroke="#3C3C3C" stroke-width="2" stroke-linecap="round" stroke-linejoin="round"/>
</svg>
