<svg width="22" height="22" viewBox="0 0 22 22" fill="none" xmlns="http://www.w3.org/2000/svg">
<circle cx="11" cy="11" r="11" fill="white"/>
<path d="M8.39437 17C6.77687 17 5.26909 16.55 4 15.7736C5.0775 15.8402 6.97903 15.6805 8.16179 14.6014C6.38254 14.5233 5.58013 13.2181 5.47547 12.6602C5.62665 12.716 6.34765 12.783 6.75467 12.6268C4.70795 12.1359 4.39396 10.4179 4.46374 9.89351C4.8475 10.1501 5.49873 10.2394 5.75457 10.217C3.8474 8.91176 4.53351 6.94828 4.87076 6.52434C6.23941 8.33806 8.2906 9.35671 10.8282 9.41337C10.7803 9.21265 10.7551 9.00368 10.7551 8.78905C10.7551 7.2487 12.0567 6 13.6623 6C14.5013 6 15.2572 6.34088 15.7878 6.88614C16.3485 6.76049 17.1922 6.46634 17.6046 6.21197C17.3967 6.92596 16.7495 7.52158 16.358 7.74234C16.3612 7.74985 16.3548 7.7348 16.358 7.74234C16.7019 7.69258 17.6324 7.52152 18 7.28296C17.8182 7.68408 17.132 8.351 16.5689 8.72438C16.6736 13.1443 13.1382 17 8.39437 17Z" fill="#404041"/>
</svg>
