<svg width="43" height="43" viewBox="0 0 43 43" fill="none" xmlns="http://www.w3.org/2000/svg">
<circle cx="21.5" cy="21.5" r="21.5" fill="#A585C1"/>
<path d="M32 33.25V30.75C32 29.4239 31.4732 28.1521 30.5355 27.2145C29.5978 26.2768 28.3261 25.75 27 25.75H17C15.6739 25.75 14.4021 26.2768 13.4645 27.2145C12.5268 28.1521 12 29.4239 12 30.75V33.25" stroke="white" stroke-width="2" stroke-linecap="round" stroke-linejoin="round"/>
<path d="M22 20.75C24.7614 20.75 27 18.5114 27 15.75C27 12.9886 24.7614 10.75 22 10.75C19.2386 10.75 17 12.9886 17 15.75C17 18.5114 19.2386 20.75 22 20.75Z" stroke="white" stroke-width="2" stroke-linecap="round" stroke-linejoin="round"/>
</svg>
