<svg width="40" height="40" viewBox="0 0 40 40" fill="none" xmlns="http://www.w3.org/2000/svg">
<circle cx="20" cy="20" r="20" fill="white"/>
<path d="M30.3131 12.3785C29.7173 11.7823 29.0098 11.3094 28.2311 10.9868C27.4524 10.6641 26.6177 10.498 25.7748 10.498C24.9319 10.498 24.0973 10.6641 23.3186 10.9868C22.5399 11.3094 21.8324 11.7823 21.2365 12.3785L19.9998 13.6152L18.7631 12.3785C17.5595 11.1749 15.927 10.4987 14.2248 10.4987C12.5226 10.4987 10.8901 11.1749 9.68648 12.3785C8.48284 13.5822 7.80664 15.2146 7.80664 16.9168C7.80664 18.619 8.48284 20.2515 9.68648 21.4552L10.9231 22.6918L19.9998 31.7685L29.0765 22.6918L30.3131 21.4552C30.9093 20.8593 31.3822 20.1518 31.7049 19.3731C32.0275 18.5944 32.1936 17.7597 32.1936 16.9168C32.1936 16.0739 32.0275 15.2393 31.7049 14.4606C31.3822 13.6819 30.9093 12.9744 30.3131 12.3785Z" fill="#A585C1"/>
</svg>
