<svg width="721" height="40" viewBox="0 0 721 40" fill="none" xmlns="http://www.w3.org/2000/svg">
<path d="M58.003 21.262C59.119 21.262 59.962 21.022 60.532 20.542C61.108 20.056 61.396 19.375 61.396 18.499C61.396 18.097 61.318 17.737 61.162 17.419C61.012 17.095 60.793 16.822 60.505 16.6C60.217 16.372 59.863 16.198 59.443 16.078C59.023 15.958 58.546 15.898 58.012 15.898H54.808V21.262H58.003ZM54.808 9.994V15.223H57.562C58.15 15.223 58.651 15.148 59.065 14.998C59.485 14.848 59.827 14.65 60.091 14.404C60.361 14.158 60.559 13.879 60.685 13.567C60.811 13.255 60.874 12.934 60.874 12.604C60.874 11.746 60.601 11.098 60.055 10.66C59.515 10.216 58.678 9.994 57.544 9.994H54.808ZM57.544 9.265C58.27 9.265 58.9 9.337 59.434 9.481C59.968 9.625 60.409 9.838 60.757 10.12C61.105 10.396 61.363 10.735 61.531 11.137C61.699 11.539 61.783 11.995 61.783 12.505C61.783 12.841 61.723 13.165 61.603 13.477C61.489 13.789 61.321 14.077 61.099 14.341C60.883 14.605 60.613 14.836 60.289 15.034C59.971 15.226 59.605 15.373 59.191 15.475C60.193 15.619 60.961 15.952 61.495 16.474C62.035 16.99 62.305 17.671 62.305 18.517C62.305 19.057 62.209 19.543 62.017 19.975C61.825 20.407 61.546 20.773 61.18 21.073C60.814 21.373 60.364 21.604 59.83 21.766C59.296 21.922 58.69 22 58.012 22H53.881V9.265H57.544ZM71.9628 17.374L69.3708 10.939C69.2808 10.729 69.1938 10.477 69.1098 10.183C69.0738 10.327 69.0348 10.465 68.9928 10.597C68.9508 10.723 68.9058 10.84 68.8578 10.948L66.2658 17.374H71.9628ZM74.7798 22H74.0688C73.9848 22 73.9158 21.979 73.8618 21.937C73.8078 21.889 73.7658 21.829 73.7358 21.757L72.2418 18.058H65.9868L64.4928 21.757C64.4688 21.823 64.4268 21.88 64.3668 21.928C64.3068 21.976 64.2348 22 64.1508 22H63.4488L68.6598 9.265H69.5688L74.7798 22ZM86.7795 16.222V20.749C86.1435 21.199 85.4655 21.544 84.7455 21.784C84.0255 22.024 83.2155 22.144 82.3155 22.144C81.3075 22.144 80.4015 21.991 79.5975 21.685C78.7935 21.373 78.1065 20.935 77.5365 20.371C76.9725 19.801 76.5375 19.114 76.2315 18.31C75.9315 17.506 75.7815 16.612 75.7815 15.628C75.7815 14.644 75.9285 13.753 76.2225 12.955C76.5225 12.151 76.9485 11.467 77.5005 10.903C78.0585 10.333 78.7305 9.895 79.5165 9.589C80.3025 9.277 81.1875 9.121 82.1715 9.121C82.6575 9.121 83.1045 9.154 83.5125 9.22C83.9265 9.286 84.3105 9.385 84.6645 9.517C85.0185 9.643 85.3485 9.802 85.6545 9.994C85.9605 10.18 86.2545 10.396 86.5365 10.642L86.2845 11.038C86.2005 11.182 86.0745 11.215 85.9065 11.137C85.8165 11.101 85.6875 11.017 85.5195 10.885C85.3515 10.753 85.1205 10.615 84.8265 10.471C84.5325 10.327 84.1665 10.198 83.7285 10.084C83.2965 9.97 82.7685 9.913 82.1445 9.913C81.3165 9.913 80.5665 10.045 79.8945 10.309C79.2285 10.573 78.6585 10.951 78.1845 11.443C77.7165 11.935 77.3535 12.535 77.0955 13.243C76.8435 13.951 76.7175 14.746 76.7175 15.628C76.7175 16.522 76.8435 17.326 77.0955 18.04C77.3535 18.754 77.7225 19.36 78.2025 19.858C78.6885 20.356 79.2765 20.737 79.9665 21.001C80.6565 21.265 81.4335 21.397 82.2975 21.397C82.6755 21.397 83.0235 21.373 83.3415 21.325C83.6655 21.277 83.9715 21.211 84.2595 21.127C84.5535 21.037 84.8355 20.929 85.1055 20.803C85.3815 20.671 85.6605 20.524 85.9425 20.362V16.933H83.5035C83.4375 16.933 83.3805 16.912 83.3325 16.87C83.2905 16.828 83.2695 16.78 83.2695 16.726V16.222H86.7795Z" fill="white"/>
<path d="M279.748 13.374L277.156 6.939C277.066 6.729 276.979 6.477 276.895 6.183C276.859 6.327 276.82 6.465 276.778 6.597C276.736 6.723 276.691 6.84 276.643 6.948L274.051 13.374H279.748ZM282.565 18H281.854C281.77 18 281.701 17.979 281.647 17.937C281.593 17.889 281.551 17.829 281.521 17.757L280.027 14.058H273.772L272.278 17.757C272.254 17.823 272.212 17.88 272.152 17.928C272.092 17.976 272.02 18 271.936 18H271.234L276.445 5.265H277.354L282.565 18ZM295.404 11.628C295.404 12.612 295.257 13.497 294.963 14.283C294.669 15.069 294.255 15.738 293.721 16.29C293.187 16.842 292.545 17.265 291.795 17.559C291.051 17.853 290.229 18 289.329 18H284.676V5.265H289.329C290.229 5.265 291.051 5.412 291.795 5.706C292.545 6 293.187 6.423 293.721 6.975C294.255 7.527 294.669 8.196 294.963 8.982C295.257 9.768 295.404 10.65 295.404 11.628ZM294.45 11.628C294.45 10.74 294.327 9.948 294.081 9.252C293.835 8.556 293.487 7.968 293.037 7.488C292.587 7.008 292.047 6.642 291.417 6.39C290.787 6.138 290.091 6.012 289.329 6.012H285.603V17.253H289.329C290.091 17.253 290.787 17.127 291.417 16.875C292.047 16.623 292.587 16.257 293.037 15.777C293.487 15.297 293.835 14.709 294.081 14.013C294.327 13.317 294.45 12.522 294.45 11.628ZM309.08 11.628C309.08 12.612 308.933 13.497 308.639 14.283C308.345 15.069 307.931 15.738 307.397 16.29C306.863 16.842 306.221 17.265 305.471 17.559C304.727 17.853 303.905 18 303.005 18H298.352V5.265H303.005C303.905 5.265 304.727 5.412 305.471 5.706C306.221 6 306.863 6.423 307.397 6.975C307.931 7.527 308.345 8.196 308.639 8.982C308.933 9.768 309.08 10.65 309.08 11.628ZM308.126 11.628C308.126 10.74 308.003 9.948 307.757 9.252C307.511 8.556 307.163 7.968 306.713 7.488C306.263 7.008 305.723 6.642 305.093 6.39C304.463 6.138 303.767 6.012 303.005 6.012H299.279V17.253H303.005C303.767 17.253 304.463 17.127 305.093 16.875C305.723 16.623 306.263 16.257 306.713 15.777C307.163 15.297 307.511 14.709 307.757 14.013C308.003 13.317 308.126 12.522 308.126 11.628ZM315.159 11.556C315.723 11.556 316.227 11.49 316.671 11.358C317.121 11.22 317.499 11.025 317.805 10.773C318.117 10.521 318.354 10.218 318.516 9.864C318.678 9.51 318.759 9.111 318.759 8.667C318.759 7.761 318.462 7.089 317.868 6.651C317.28 6.213 316.419 5.994 315.285 5.994H312.954V11.556H315.159ZM320.811 18H320.019C319.917 18 319.83 17.985 319.758 17.955C319.692 17.919 319.629 17.856 319.569 17.766L315.483 12.6C315.435 12.534 315.384 12.477 315.33 12.429C315.282 12.381 315.225 12.345 315.159 12.321C315.099 12.291 315.024 12.27 314.934 12.258C314.85 12.246 314.745 12.24 314.619 12.24H312.954V18H312.027V5.265H315.285C316.749 5.265 317.844 5.55 318.57 6.12C319.302 6.684 319.668 7.515 319.668 8.613C319.668 9.099 319.584 9.543 319.416 9.945C319.248 10.347 319.005 10.701 318.687 11.007C318.375 11.307 317.994 11.553 317.544 11.745C317.1 11.937 316.599 12.066 316.041 12.132C316.185 12.222 316.314 12.342 316.428 12.492L320.811 18ZM330.611 17.235L330.593 18H322.961V5.265H330.593V6.03H323.888V11.178H329.468V11.925H323.888V17.235H330.611ZM339.585 6.813C339.531 6.915 339.453 6.966 339.351 6.966C339.273 6.966 339.171 6.912 339.045 6.804C338.925 6.69 338.76 6.567 338.55 6.435C338.34 6.297 338.076 6.171 337.758 6.057C337.446 5.943 337.059 5.886 336.597 5.886C336.135 5.886 335.727 5.952 335.373 6.084C335.025 6.216 334.731 6.396 334.491 6.624C334.257 6.852 334.077 7.116 333.951 7.416C333.831 7.716 333.771 8.031 333.771 8.361C333.771 8.793 333.861 9.15 334.041 9.432C334.227 9.714 334.47 9.954 334.77 10.152C335.07 10.35 335.409 10.518 335.787 10.656C336.171 10.788 336.564 10.92 336.966 11.052C337.368 11.184 337.758 11.331 338.136 11.493C338.52 11.649 338.862 11.847 339.162 12.087C339.462 12.327 339.702 12.624 339.882 12.978C340.068 13.326 340.161 13.761 340.161 14.283C340.161 14.817 340.068 15.321 339.882 15.795C339.702 16.263 339.438 16.671 339.09 17.019C338.742 17.367 338.316 17.643 337.812 17.847C337.308 18.045 336.732 18.144 336.084 18.144C335.244 18.144 334.521 17.997 333.915 17.703C333.309 17.403 332.778 16.995 332.322 16.479L332.574 16.083C332.646 15.993 332.73 15.948 332.826 15.948C332.88 15.948 332.949 15.984 333.033 16.056C333.117 16.128 333.219 16.218 333.339 16.326C333.459 16.428 333.603 16.542 333.771 16.668C333.939 16.788 334.134 16.902 334.356 17.01C334.578 17.112 334.833 17.199 335.121 17.271C335.409 17.343 335.736 17.379 336.102 17.379C336.606 17.379 337.056 17.304 337.452 17.154C337.848 16.998 338.181 16.788 338.451 16.524C338.727 16.26 338.937 15.948 339.081 15.588C339.225 15.222 339.297 14.832 339.297 14.418C339.297 13.968 339.204 13.599 339.018 13.311C338.838 13.017 338.598 12.774 338.298 12.582C337.998 12.384 337.656 12.219 337.272 12.087C336.894 11.955 336.504 11.826 336.102 11.7C335.7 11.574 335.307 11.433 334.923 11.277C334.545 11.121 334.206 10.923 333.906 10.683C333.606 10.437 333.363 10.134 333.177 9.774C332.997 9.408 332.907 8.952 332.907 8.406C332.907 7.98 332.988 7.569 333.15 7.173C333.312 6.777 333.549 6.429 333.861 6.129C334.173 5.823 334.557 5.58 335.013 5.4C335.475 5.214 336 5.121 336.588 5.121C337.248 5.121 337.839 5.226 338.361 5.436C338.889 5.646 339.369 5.967 339.801 6.399L339.585 6.813ZM349.218 6.813C349.164 6.915 349.086 6.966 348.984 6.966C348.906 6.966 348.804 6.912 348.678 6.804C348.558 6.69 348.393 6.567 348.183 6.435C347.973 6.297 347.709 6.171 347.391 6.057C347.079 5.943 346.692 5.886 346.23 5.886C345.768 5.886 345.36 5.952 345.006 6.084C344.658 6.216 344.364 6.396 344.124 6.624C343.89 6.852 343.71 7.116 343.584 7.416C343.464 7.716 343.404 8.031 343.404 8.361C343.404 8.793 343.494 9.15 343.674 9.432C343.86 9.714 344.103 9.954 344.403 10.152C344.703 10.35 345.042 10.518 345.42 10.656C345.804 10.788 346.197 10.92 346.599 11.052C347.001 11.184 347.391 11.331 347.769 11.493C348.153 11.649 348.495 11.847 348.795 12.087C349.095 12.327 349.335 12.624 349.515 12.978C349.701 13.326 349.794 13.761 349.794 14.283C349.794 14.817 349.701 15.321 349.515 15.795C349.335 16.263 349.071 16.671 348.723 17.019C348.375 17.367 347.949 17.643 347.445 17.847C346.941 18.045 346.365 18.144 345.717 18.144C344.877 18.144 344.154 17.997 343.548 17.703C342.942 17.403 342.411 16.995 341.955 16.479L342.207 16.083C342.279 15.993 342.363 15.948 342.459 15.948C342.513 15.948 342.582 15.984 342.666 16.056C342.75 16.128 342.852 16.218 342.972 16.326C343.092 16.428 343.236 16.542 343.404 16.668C343.572 16.788 343.767 16.902 343.989 17.01C344.211 17.112 344.466 17.199 344.754 17.271C345.042 17.343 345.369 17.379 345.735 17.379C346.239 17.379 346.689 17.304 347.085 17.154C347.481 16.998 347.814 16.788 348.084 16.524C348.36 16.26 348.57 15.948 348.714 15.588C348.858 15.222 348.93 14.832 348.93 14.418C348.93 13.968 348.837 13.599 348.651 13.311C348.471 13.017 348.231 12.774 347.931 12.582C347.631 12.384 347.289 12.219 346.905 12.087C346.527 11.955 346.137 11.826 345.735 11.7C345.333 11.574 344.94 11.433 344.556 11.277C344.178 11.121 343.839 10.923 343.539 10.683C343.239 10.437 342.996 10.134 342.81 9.774C342.63 9.408 342.54 8.952 342.54 8.406C342.54 7.98 342.621 7.569 342.783 7.173C342.945 6.777 343.182 6.429 343.494 6.129C343.806 5.823 344.19 5.58 344.646 5.4C345.108 5.214 345.633 5.121 346.221 5.121C346.881 5.121 347.472 5.226 347.994 5.436C348.522 5.646 349.002 5.967 349.434 6.399L349.218 6.813Z" fill="white"/>
<path d="M538.175 12.132C538.733 12.132 539.234 12.054 539.678 11.898C540.122 11.742 540.497 11.526 540.803 11.25C541.115 10.974 541.352 10.65 541.514 10.278C541.682 9.9 541.766 9.489 541.766 9.045C541.766 8.067 541.466 7.314 540.866 6.786C540.266 6.258 539.369 5.994 538.175 5.994H535.808V12.132H538.175ZM538.175 5.265C539.669 5.265 540.794 5.592 541.55 6.246C542.312 6.9 542.693 7.833 542.693 9.045C542.693 9.603 542.588 10.116 542.378 10.584C542.168 11.052 541.868 11.457 541.478 11.799C541.088 12.135 540.614 12.399 540.056 12.591C539.498 12.777 538.871 12.87 538.175 12.87H535.808V18H534.881V5.265H538.175ZM551.275 13.374L548.683 6.939C548.593 6.729 548.506 6.477 548.422 6.183C548.386 6.327 548.347 6.465 548.305 6.597C548.263 6.723 548.218 6.84 548.17 6.948L545.578 13.374H551.275ZM554.092 18H553.381C553.297 18 553.228 17.979 553.174 17.937C553.12 17.889 553.078 17.829 553.048 17.757L551.554 14.058H545.299L543.805 17.757C543.781 17.823 543.739 17.88 543.679 17.928C543.619 17.976 543.547 18 543.463 18H542.761L547.972 5.265H548.881L554.092 18ZM558.976 12.753V18H558.058V12.753L553.342 5.265H554.152C554.236 5.265 554.305 5.286 554.359 5.328C554.413 5.364 554.458 5.418 554.494 5.49L558.139 11.34C558.217 11.478 558.289 11.613 558.355 11.745C558.421 11.871 558.478 11.997 558.526 12.123C558.574 11.997 558.628 11.871 558.688 11.745C558.748 11.613 558.817 11.478 558.895 11.34L562.54 5.49C562.57 5.424 562.612 5.37 562.666 5.328C562.726 5.286 562.798 5.265 562.882 5.265H563.692L558.976 12.753ZM578.33 5.265V18H577.529V7.146C577.529 6.99 577.538 6.825 577.556 6.651L572.543 15.552C572.459 15.708 572.339 15.786 572.183 15.786H572.039C571.883 15.786 571.763 15.708 571.679 15.552L566.531 6.633C566.549 6.813 566.558 6.984 566.558 7.146V18H565.748V5.265H566.387C566.471 5.265 566.537 5.274 566.585 5.292C566.633 5.31 566.681 5.358 566.729 5.436L571.868 14.292C571.958 14.46 572.036 14.64 572.102 14.832C572.138 14.736 572.177 14.643 572.219 14.553C572.261 14.457 572.306 14.367 572.354 14.283L577.349 5.436C577.397 5.358 577.445 5.31 577.493 5.292C577.547 5.274 577.616 5.265 577.7 5.265H578.33ZM589.746 17.235L589.728 18H582.096V5.265H589.728V6.03H583.023V11.178H588.603V11.925H583.023V17.235H589.746ZM602.365 5.265V18H601.933C601.855 18 601.789 17.988 601.735 17.964C601.687 17.934 601.639 17.886 601.591 17.82L593.32 6.768C593.338 6.948 593.347 7.119 593.347 7.281V18H592.537V5.265H592.996C593.08 5.265 593.143 5.277 593.185 5.301C593.233 5.319 593.284 5.364 593.338 5.436L601.591 16.461C601.573 16.281 601.564 16.11 601.564 15.948V5.265H602.365ZM614.405 6.048H609.932V18H609.005V6.048H604.505V5.265H614.405V6.048Z" fill="white"/>
<line y1="31.5" x2="88" y2="31.5" stroke="#FF6903" stroke-width="3"/>
<line x1="633" y1="31.5" x2="721" y2="31.5" stroke="#E1E1E1" stroke-width="3"/>
<line x1="104.5" y1="31.5" x2="352.5" y2="31.5" stroke="#FF6903" stroke-width="3"/>
<line x1="368.5" y1="31.5" x2="616.5" y2="31.5" stroke="#E1E1E1" stroke-width="3"/>
<circle cx="96.5" cy="31" r="9" fill="#FF6903"/>
<circle cx="360.5" cy="31" r="9" fill="#FF6903"/>
<circle cx="624.5" cy="31" r="7.5" stroke="#E1E1E1" stroke-width="3"/>
</svg>
