<svg width="30" height="30" viewBox="0 0 30 30" fill="none" xmlns="http://www.w3.org/2000/svg">
<path d="M26.0497 5.76283C25.4112 5.12408 24.6532 4.61739 23.8189 4.27168C22.9845 3.92598 22.0903 3.74805 21.1872 3.74805C20.2841 3.74805 19.3898 3.92598 18.5555 4.27168C17.7211 4.61739 16.9631 5.12408 16.3247 5.76283L14.9997 7.08783L13.6747 5.76283C12.385 4.47321 10.636 3.74872 8.81216 3.74872C6.98837 3.74872 5.23928 4.47321 3.94966 5.76283C2.66005 7.05244 1.93555 8.80154 1.93555 10.6253C1.93555 12.4491 2.66005 14.1982 3.94966 15.4878L5.27466 16.8128L14.9997 26.5378L24.7247 16.8128L26.0497 15.4878C26.6884 14.8494 27.1951 14.0913 27.5408 13.257C27.8865 12.4227 28.0644 11.5284 28.0644 10.6253C28.0644 9.72222 27.8865 8.82796 27.5408 7.99363C27.1951 7.15931 26.6884 6.40127 26.0497 5.76283V5.76283Z" stroke="#3C3C3C" stroke-width="2" stroke-linecap="round" stroke-linejoin="round"/>
</svg>
