<svg width="25" height="23" viewBox="0 0 25 23" fill="none" xmlns="http://www.w3.org/2000/svg">
<path d="M12.0225 0.538459C12.1681 0.0694188 12.8319 0.0694193 12.9775 0.538459L15.3253 8.1023C15.3909 8.31383 15.5879 8.45695 15.8094 8.45403L23.7285 8.34953C24.2196 8.34305 24.4248 8.97443 24.0237 9.25783L17.5555 13.828C17.3746 13.9558 17.2994 14.1874 17.3706 14.3972L19.9171 21.8964C20.0751 22.3614 19.538 22.7517 19.1445 22.4578L12.7992 17.7185C12.6218 17.5859 12.3782 17.5859 12.2008 17.7185L5.85551 22.4578C5.46203 22.7517 4.92494 22.3614 5.08286 21.8964L7.62939 14.3972C7.70061 14.1874 7.62536 13.9558 7.44447 13.828L0.976335 9.25783C0.57524 8.97443 0.78039 8.34305 1.27146 8.34953L9.19059 8.45403C9.41206 8.45695 9.60906 8.31383 9.67472 8.1023L12.0225 0.538459Z" fill="#FFBC03"/>
</svg>
